<svg xmlns="http://www.w3.org/2000/svg" width="20" height="20" viewBox="0 0 20 20">
  <g id="Group_20" data-name="Group 20" transform="translate(-452 -64)">
    <path id="Union_2" data-name="Union 2" d="M2.907,10.9V6.177L-1,0H11L7.093,6.178V14Z" transform="translate(457 70)"/>
    <g id="Union_1" data-name="Union 1" transform="translate(452 64)" fill="none">
      <path d="M7.908,17.046V13.3L0,0H20L12.094,13.3V20Z" stroke="none"/>
      <path d="M 11.09360027313232 18.07032585144043 L 11.09360027313232 13.2974100112915 L 11.09360027313232 13.02256965637207 L 11.23406028747559 12.78633975982666 L 18.24200439453125 1 L 1.757995009422302 1 L 8.767069816589355 12.78824043273926 L 8.907529830932617 13.02447032928467 L 8.907529830932617 13.29930973052979 L 8.907529830932617 16.52756309509277 L 11.09360027313232 18.07032585144043 M 12.09360027313232 20 L 7.907529830932617 17.04578971862793 L 7.907529830932617 13.29930973052979 L 0 0 L 20 0 L 12.09360027313232 13.2974100112915 L 12.09360027313232 20 Z" stroke="none"/>
    </g>
  </g>
</svg>
